<mxfile host="app.diagrams.net" agent="Mozilla/5.0 (Macintosh; Intel Mac OS X 10_15_7) AppleWebKit/605.1.15 (KHTML, like Gecko) Version/17.6 Safari/605.1.15" version="27.0.9">
  <diagram name="Page-1" id="2NFYow33bhXro1jrwPYq">
    <mxGraphModel dx="1267" dy="856" grid="1" gridSize="10" guides="1" tooltips="1" connect="1" arrows="1" fold="1" page="1" pageScale="1" pageWidth="827" pageHeight="1169" math="0" shadow="0">
      <root>
        <mxCell id="0" />
        <mxCell id="1" parent="0" />
        <mxCell id="oi8ZtTXexLqs8sI_RZuL-1" value="" style="whiteSpace=wrap;html=1;aspect=fixed;fillColor=#1ba1e2;fontColor=#ffffff;strokeColor=#006EAF;" vertex="1" parent="1">
          <mxGeometry x="360" y="160" width="200" height="200" as="geometry" />
        </mxCell>
        <mxCell id="oi8ZtTXexLqs8sI_RZuL-2" value="" style="whiteSpace=wrap;html=1;aspect=fixed;fillColor=#1ba1e2;fontColor=#ffffff;strokeColor=#006EAF;" vertex="1" parent="1">
          <mxGeometry x="360" y="400" width="200" height="200" as="geometry" />
        </mxCell>
        <mxCell id="oi8ZtTXexLqs8sI_RZuL-3" value="" style="whiteSpace=wrap;html=1;aspect=fixed;fillColor=#1ba1e2;fontColor=#ffffff;strokeColor=#006EAF;" vertex="1" parent="1">
          <mxGeometry x="120" y="400" width="200" height="200" as="geometry" />
        </mxCell>
        <mxCell id="oi8ZtTXexLqs8sI_RZuL-4" value="&lt;font style=&quot;font-size: 32px;&quot;&gt;START&lt;/font&gt;" style="text;html=1;align=center;verticalAlign=middle;whiteSpace=wrap;rounded=0;strokeWidth=10;" vertex="1" parent="1">
          <mxGeometry x="190" y="240" width="60" height="40" as="geometry" />
        </mxCell>
      </root>
    </mxGraphModel>
  </diagram>
</mxfile>
